<svg width="832" height="832" viewBox="0 0 832 832" fill="none" xmlns="http://www.w3.org/2000/svg">
<mask id="mask0_1_12523" style="mask-type:luminance" maskUnits="userSpaceOnUse" x="0" y="0" width="832" height="832">
<path fill-rule="evenodd" clip-rule="evenodd" d="M832 259.119C832 249.242 832.004 239.364 831.943 229.486C831.894 221.165 831.798 212.846 831.572 204.529C831.083 186.402 830.014 168.119 826.79 150.194C823.52 132.01 818.181 115.086 809.767 98.5644C801.496 82.3253 790.691 67.4655 777.799 54.5826C764.91 41.6998 750.046 30.902 733.801 22.6356C717.263 14.2197 700.321 8.88238 682.117 5.61396C664.19 2.39502 645.902 1.32776 627.775 0.838055C619.452 0.612891 611.129 0.517979 602.804 0.466484C592.921 0.405901 583.038 0.41095 573.155 0.41095L458.404 0H372.58L259.86 0.41095C249.958 0.41095 240.055 0.405901 230.153 0.466484C221.811 0.517979 213.473 0.612891 205.134 0.838055C186.964 1.32776 168.635 2.39603 150.666 5.61901C132.437 8.88641 115.47 14.2217 98.9093 22.6315C82.6299 30.899 67.7338 41.6978 54.8177 54.5826C41.9036 67.4645 31.0786 82.3213 22.792 98.5573C14.3549 115.087 9.00553 132.021 5.72804 150.215C2.50103 168.133 1.43176 186.41 0.940032 204.529C0.715878 212.847 0.618947 221.166 0.568462 229.486C0.50788 239.365 0 251.636 0 261.514L0.0030291 372.672L0 459.416L0.512928 572.936C0.512928 582.827 0.508889 592.718 0.568462 602.609C0.618947 610.941 0.715878 619.271 0.941042 627.6C1.43176 645.751 2.50305 664.06 5.73308 682.009C9.00956 700.217 14.358 717.165 22.7879 733.708C31.0756 749.971 41.9026 764.85 54.8177 777.751C67.7328 790.652 82.6249 801.464 98.9012 809.742C115.472 818.169 132.448 823.513 150.687 826.786C168.648 830.01 186.971 831.079 205.134 831.569C213.473 831.794 221.812 831.89 230.154 831.94C240.056 832.001 249.958 831.997 259.86 831.997L373.599 832H459.636L573.155 831.996C583.038 831.996 592.921 832.001 602.804 831.94C611.129 831.89 619.452 831.794 627.775 831.569C645.909 831.078 664.203 830.008 682.138 826.782C700.331 823.509 717.264 818.167 733.794 809.745C750.042 801.468 764.909 790.654 777.799 777.751C790.689 764.852 801.493 749.975 809.764 733.715C818.183 717.164 823.522 700.208 826.794 681.988C830.015 664.046 831.083 645.744 831.573 627.6C831.798 619.27 831.894 610.94 831.943 602.609C832.005 592.718 832 582.827 832 572.936C832 572.936 831.994 461.42 831.994 459.416V372.581C831.994 371.101 832 259.119 832 259.119Z" fill="white"/>
</mask>
<g mask="url(#mask0_1_12523)">
<rect x="0.03125" width="832" height="832" fill="url(#paint0_linear_1_12523)"/>
<g filter="url(#filter0_f_1_12523)">
<path d="M131.656 286C131.656 241.127 168.033 204.75 212.906 204.75H619.156C664.029 204.75 700.406 241.127 700.406 286V750.75C700.406 795.623 664.029 832 619.156 832H212.906C168.033 832 131.656 795.623 131.656 750.75V286Z" fill="#148BE0"/>
</g>
<path d="M131.656 315.5C131.656 252.678 182.584 201.75 245.406 201.75H586.656C649.479 201.75 700.406 252.678 700.406 315.5V715.25C700.406 778.072 649.479 829 586.656 829H245.406C182.584 829 131.656 778.072 131.656 715.25V315.5Z" fill="white"/>
<g filter="url(#filter1_f_1_12523)">
<path d="M262.469 931.125L993.719 911.219L928.329 408.688C919.445 340.407 834.975 313.44 788.168 363.941L262.469 931.125Z" fill="#148BE0"/>
</g>
<path d="M803.78 334.381C841.462 297.162 905.454 318.298 913.555 370.639L993.624 887.982L232.605 898.541L803.78 334.381Z" fill="url(#paint1_linear_1_12523)" stroke="#CCE7FB" stroke-width="0.1625"/>
<g filter="url(#filter2_f_1_12523)">
<path d="M559.031 935.188L-74.7188 913.25L-63.1995 543.263C-61.0319 473.64 22.0045 438.845 73.159 486.124L559.031 935.188Z" fill="#148BE0"/>
</g>
<path d="M31.7832 430.458C-10.6147 392.658 -77.6832 423.689 -76.3184 480.475L-66.5146 888.388H545.412L31.7832 430.458Z" fill="url(#paint2_linear_1_12523)" stroke="#CCE7FB" stroke-width="0.1625"/>
<g filter="url(#filter3_d_1_12523)">
<mask id="path-9-inside-1_1_12523" fill="white">
<path d="M492.414 339.452C501.933 329.933 517.366 329.933 526.885 339.452L555.037 367.603C564.556 377.122 564.556 392.556 555.037 402.075L509.709 447.401L509.71 447.402L447.087 510.025L401.76 555.351C392.241 564.87 376.808 564.87 367.289 555.351L321.901 509.965V509.964L290.997 479.058C277.796 465.858 271.196 459.258 270.034 451.245C269.697 448.925 269.697 446.569 270.034 444.25C271.196 436.237 277.796 429.636 290.997 416.435C304.197 403.235 310.797 396.634 318.81 395.472C321.13 395.136 323.486 395.136 325.805 395.472C333.818 396.634 340.419 403.235 353.62 416.435L384.525 447.341L492.414 339.452Z"/>
</mask>
<path d="M492.414 339.452C501.933 329.933 517.366 329.933 526.885 339.452L555.037 367.603C564.556 377.122 564.556 392.556 555.037 402.075L509.709 447.401L509.71 447.402L447.087 510.025L401.76 555.351C392.241 564.87 376.808 564.87 367.289 555.351L321.901 509.965V509.964L290.997 479.058C277.796 465.858 271.196 459.258 270.034 451.245C269.697 448.925 269.697 446.569 270.034 444.25C271.196 436.237 277.796 429.636 290.997 416.435C304.197 403.235 310.797 396.634 318.81 395.472C321.13 395.136 323.486 395.136 325.805 395.472C333.818 396.634 340.419 403.235 353.62 416.435L384.525 447.341L492.414 339.452Z" fill="url(#paint3_linear_1_12523)"/>
<path d="M555.037 402.075L555.152 402.19L555.037 402.075ZM509.709 447.401L509.595 447.286L509.48 447.401L509.595 447.516L509.709 447.401ZM509.71 447.402L509.825 447.517L509.94 447.402L509.825 447.287L509.71 447.402ZM447.087 510.025L447.202 510.14L447.087 510.025ZM401.76 555.351L401.645 555.236L401.76 555.351ZM367.289 555.351L367.403 555.236L367.289 555.351ZM321.901 509.965H321.738V510.032L321.786 510.079L321.901 509.965ZM321.901 509.964H322.063V509.896L322.016 509.849L321.901 509.964ZM290.997 479.058L291.111 478.943H291.111L290.997 479.058ZM270.034 451.245L269.873 451.268H269.873L270.034 451.245ZM270.034 444.25L269.873 444.226H269.873L270.034 444.25ZM290.997 416.435L290.882 416.32L290.997 416.435ZM318.81 395.472L318.787 395.312L318.81 395.472ZM325.805 395.472L325.828 395.312H325.828L325.805 395.472ZM353.62 416.435L353.735 416.32L353.62 416.435ZM384.525 447.341L384.41 447.455L384.525 447.57L384.64 447.455L384.525 447.341ZM492.414 339.452L492.528 339.567C501.984 330.111 517.315 330.111 526.77 339.567L526.885 339.452L527 339.337C517.418 329.755 501.881 329.755 492.299 339.337L492.414 339.452ZM526.885 339.452L526.77 339.567L554.922 367.718L555.037 367.603L555.152 367.488L527 339.337L526.885 339.452ZM555.037 367.603L554.922 367.718C564.377 377.174 564.377 392.504 554.922 401.96L555.037 402.075L555.152 402.19C564.734 392.607 564.734 377.071 555.152 367.488L555.037 367.603ZM555.037 402.075L554.922 401.96L509.595 447.286L509.709 447.401L509.824 447.516L555.152 402.19L555.037 402.075ZM509.709 447.401L509.595 447.516L509.596 447.517L509.71 447.402L509.825 447.287L509.824 447.286L509.709 447.401ZM509.71 447.402L509.596 447.287L446.973 509.91L447.087 510.025L447.202 510.14L509.825 447.517L509.71 447.402ZM447.087 510.025L446.973 509.91L401.645 555.236L401.76 555.351L401.875 555.466L447.202 510.14L447.087 510.025ZM401.76 555.351L401.645 555.236C392.19 564.692 376.859 564.692 367.403 555.236L367.289 555.351L367.174 555.466C376.756 565.049 392.293 565.049 401.875 555.466L401.76 555.351ZM367.289 555.351L367.403 555.236L322.016 509.85L321.901 509.965L321.786 510.079L367.174 555.466L367.289 555.351ZM321.901 509.965H322.063V509.964H321.901H321.738V509.965H321.901ZM321.901 509.964L322.016 509.849L291.111 478.943L290.997 479.058L290.882 479.173L321.786 510.079L321.901 509.964ZM290.997 479.058L291.111 478.943C284.509 472.341 279.566 467.398 276.127 463.105C272.691 458.814 270.77 455.188 270.195 451.222L270.034 451.245L269.873 451.268C270.46 455.315 272.419 458.995 275.874 463.308C279.326 467.618 284.284 472.576 290.882 479.173L290.997 479.058ZM270.034 451.245L270.195 451.222C269.86 448.917 269.86 446.577 270.195 444.273L270.034 444.25L269.873 444.226C269.534 446.561 269.534 448.933 269.873 451.268L270.034 451.245ZM270.034 444.25L270.195 444.273C270.77 440.307 272.691 436.68 276.127 432.39C279.566 428.096 284.509 423.153 291.111 416.55L290.997 416.435L290.882 416.32C284.284 422.918 279.326 427.876 275.874 432.186C272.419 436.499 270.46 440.18 269.873 444.226L270.034 444.25ZM290.997 416.435L291.111 416.55C297.714 409.947 302.657 405.005 306.95 401.566C311.241 398.13 314.867 396.208 318.833 395.633L318.81 395.472L318.787 395.312C314.74 395.898 311.06 397.858 306.747 401.313C302.437 404.765 297.479 409.723 290.882 416.32L290.997 416.435ZM318.81 395.472L318.833 395.633C321.137 395.299 323.478 395.299 325.782 395.633L325.805 395.472L325.828 395.312C323.494 394.973 321.122 394.973 318.787 395.312L318.81 395.472ZM325.805 395.472L325.782 395.633C329.748 396.208 333.375 398.13 337.665 401.566C341.959 405.005 346.902 409.947 353.505 416.55L353.62 416.435L353.735 416.32C347.137 409.723 342.179 404.765 337.869 401.312C333.556 397.858 329.875 395.898 325.828 395.312L325.805 395.472ZM353.62 416.435L353.505 416.55L384.41 447.455L384.525 447.341L384.64 447.226L353.735 416.32L353.62 416.435ZM384.525 447.341L384.64 447.455L492.528 339.567L492.414 339.452L492.299 339.337L384.41 447.226L384.525 447.341Z" fill="#C1E5FF" mask="url(#path-9-inside-1_1_12523)"/>
</g>
</g>
<defs>
<filter id="filter0_f_1_12523" x="-30.8438" y="42.25" width="893.75" height="952.25" filterUnits="userSpaceOnUse" color-interpolation-filters="sRGB">
<feFlood flood-opacity="0" result="BackgroundImageFix"/>
<feBlend mode="normal" in="SourceGraphic" in2="BackgroundImageFix" result="shape"/>
<feGaussianBlur stdDeviation="81.25" result="effect1_foregroundBlur_1_12523"/>
</filter>
<filter id="filter1_f_1_12523" x="181.219" y="256.578" width="893.75" height="755.797" filterUnits="userSpaceOnUse" color-interpolation-filters="sRGB">
<feFlood flood-opacity="0" result="BackgroundImageFix"/>
<feBlend mode="normal" in="SourceGraphic" in2="BackgroundImageFix" result="shape"/>
<feGaussianBlur stdDeviation="40.625" result="effect1_foregroundBlur_1_12523"/>
</filter>
<filter id="filter2_f_1_12523" x="-155.969" y="383.149" width="796.25" height="633.288" filterUnits="userSpaceOnUse" color-interpolation-filters="sRGB">
<feFlood flood-opacity="0" result="BackgroundImageFix"/>
<feBlend mode="normal" in="SourceGraphic" in2="BackgroundImageFix" result="shape"/>
<feGaussianBlur stdDeviation="40.625" result="effect1_foregroundBlur_1_12523"/>
</filter>
<filter id="filter3_d_1_12523" x="237.281" y="301.438" width="357.394" height="295.178" filterUnits="userSpaceOnUse" color-interpolation-filters="sRGB">
<feFlood flood-opacity="0" result="BackgroundImageFix"/>
<feColorMatrix in="SourceAlpha" type="matrix" values="0 0 0 0 0 0 0 0 0 0 0 0 0 0 0 0 0 0 127 0" result="hardAlpha"/>
<feOffset dy="1.625"/>
<feGaussianBlur stdDeviation="16.25"/>
<feComposite in2="hardAlpha" operator="out"/>
<feColorMatrix type="matrix" values="0 0 0 0 0 0 0 0 0 0 0 0 0 0 0 0 0 0 0.1 0"/>
<feBlend mode="normal" in2="BackgroundImageFix" result="effect1_dropShadow_1_12523"/>
<feBlend mode="normal" in="SourceGraphic" in2="effect1_dropShadow_1_12523" result="shape"/>
</filter>
<linearGradient id="paint0_linear_1_12523" x1="416.031" y1="0" x2="416.031" y2="339.219" gradientUnits="userSpaceOnUse">
<stop stop-color="#6FC2FF"/>
<stop offset="1" stop-color="#1493F4"/>
</linearGradient>
<linearGradient id="paint1_linear_1_12523" x1="80.4688" y1="888.468" x2="905.562" y2="888.469" gradientUnits="userSpaceOnUse">
<stop stop-color="#ACDCFF"/>
<stop offset="1" stop-color="#81CAFF"/>
</linearGradient>
<linearGradient id="paint2_linear_1_12523" x1="31.3124" y1="888.875" x2="865.343" y2="888.875" gradientUnits="userSpaceOnUse">
<stop stop-color="#ACDCFF"/>
<stop offset="1" stop-color="#91D1FF"/>
</linearGradient>
<linearGradient id="paint3_linear_1_12523" x1="292.125" y1="498.063" x2="572.034" y2="351.448" gradientUnits="userSpaceOnUse">
<stop stop-color="#6FC2FF"/>
<stop offset="0.491803" stop-color="#49B1FD"/>
<stop offset="1" stop-color="#22A0FB"/>
</linearGradient>
</defs>
</svg>
